<svg xmlns="http://www.w3.org/2000/svg" width="682.667" height="682.667" version="1.0" viewBox="0 0 512 512"><path d="M362.6 1.1c-21.7 3-42.8 11.7-60.4 24.9-4.4 3.3-30.2 28.4-59.8 58.1-55.5 56-57.2 57.9-66.3 77l-4.9 10.1-10 4.8c-19.4 9.3-21.8 11.4-78.5 67.9-56.1 55.9-60.9 61.4-69.2 78.6-9.8 20.2-13 34.6-12.9 58 .1 18.4 1.1 24.9 6.4 41.1 7.9 23.8 24.2 46.4 45.4 62.8 46.4 36 110.7 36.7 157.3 1.7 4.5-3.4 29.9-28 59.4-57.7 55.4-55.7 57.6-58.3 66.9-77.6l4.8-10 10.1-4.9c19.1-9.1 21-10.8 77-66.3 29.7-29.6 54.8-55.4 58.1-59.8 33.2-44.2 34.5-104 3.3-151.1-6.4-9.7-26.8-29.9-36.8-36.5C438.4 12.8 424 6.8 407 2.9c-10-2.3-34-3.3-44.4-1.8zM404.5 33c17.4 4.7 31 12.2 44.3 24.5 35.9 33.2 43.4 84.7 18.6 126.7-4.3 7.3-10.8 14.3-54.4 58.1-27.2 27.4-52.2 52-55.5 54.6-35 27.8-84.8 29-120.5 2.8-8.1-6-18.5-16.3-23.9-23.7-4.4-5.9-11.1-17-11.1-18.2 0-1.5 9.9-3 17.2-2.6 10.7.6 16.8 3.4 28.5 13.3 16 13.6 31.3 19.1 50.7 18.3 8.6-.4 13-1.1 19.5-3.3 15.1-5.1 19.9-9.1 64.5-53.4 44.5-44.2 54.9-55.4 59.4-64 11.7-22 11.3-48.9-1-69.9-4.2-7.3-17.7-20.8-25-25-23.7-13.9-53.3-12.7-76.8 3.1-2.5 1.7-24.6 23.1-49.2 47.5l-44.7 44.5-8.2-1.3c-4.5-.7-12.6-1.3-18-1.4-5.5-.1-9.9-.4-9.9-.8 0-3.9 103.1-107.9 114.5-115.5 11.6-7.8 25-13.3 38.4-15.8 10.9-2.1 32.1-1.3 42.6 1.5zm-17.4 59c16.6 3.1 29.1 15.6 32.5 32.4 1.3 6.1 1.4 8.9.5 13.7-2.3 13.4-2.8 14-45.9 57.1-21.8 21.9-39.9 39.8-40.2 39.8-.3 0-1.6-2.1-3-4.7-8.9-16.9-35.8-43.4-51.2-50.4-1.6-.7-2.8-1.5-2.8-1.8 0-.4 17.9-18.5 39.8-40.3 34-34 40.5-40.1 45.4-42.3 9.2-4.2 16.1-5.2 24.9-3.5zM228.5 194.1c12.2 1.4 28.7 7 39.2 13.3 10 6 24.1 18.8 31.1 28.4 4.4 6.1 11.2 17.2 11.2 18.4 0 1.5-9.9 3-17.2 2.6-10.6-.6-16.3-3.2-28.3-13.3-16.6-13.8-31.4-19.1-50.9-18.3-8.6.4-12.9 1.1-19.1 3.2-15.7 5.3-19.5 8.5-63.9 52.5-47.1 46.8-55.9 56.3-60.8 65.7-11.5 22-10.9 48.2 1.4 69.2 4.2 7.3 17.7 20.8 25 25 24.6 14.5 56.5 12.5 78.9-4.9 2.9-2.3 24.8-23.5 48.5-47.2l43.2-42.9 8.8 1.2c4.9.7 13.1 1.3 18.1 1.4 5.1.1 9.3.4 9.3.8 0 2.5-18.2 21.7-61.1 64.3-43.4 43.1-50.4 49.6-57.7 53.9-27.8 16.5-60.7 19-90.2 7-27.6-11.2-50.9-36.6-59.5-64.9-3.7-12-4.8-21.6-4.2-34.5.6-12.7 2.9-22.8 7.8-34.5 6.6-15.9 10-19.9 61.3-71.4 26.4-26.6 51.3-50.9 55.2-54 15.2-12.3 29.6-18.1 53.4-21.5 5.2-.7 11.8-.6 20.5.5zm-48.6 85.6c7 15.5 33.5 42.4 50.4 51.3 2.6 1.4 4.7 2.7 4.7 3 0 .3-17.9 18.4-39.7 40.2-43.2 43.1-43.8 43.6-57.2 45.9-26 4.6-50.8-20.2-46.2-46.2 2.3-13.4 2.8-14 45.9-57.2 21.8-21.8 39.9-39.7 40.3-39.7.3 0 1.1 1.2 1.8 2.7z"/></svg>